<?xml version="1.0" encoding="utf-8"?>
<!-- Generator: Adobe Illustrator 18.1.1, SVG Export Plug-In . SVG Version: 6.00 Build 0)  -->
<svg version="1.1" id="Layer_1" xmlns="http://www.w3.org/2000/svg" xmlns:xlink="http://www.w3.org/1999/xlink" x="0px" y="0px"
	 viewBox="0 0 2000 1500" enable-background="new 0 0 2000 1500" xml:space="preserve">
<rect id="BG_1_" x="4.9" y="0" fill="#A7D4F2" width="1995.1" height="1496.3"/>
<g id="HELLO_WORLD_1_">
	<g>
		<g>
			<g>
				<path fill="#FFFFFF" d="M256.8,625.4c76-52.6,161.3-90.4,235.6-145.5c66-49,125.6-112.3,149.1-193c7.6-26.2,5.7-59.8-11.4-82
					c-16.2-21-42.8-25.4-66-13.3c-28.8,15-44.7,49.2-54.7,78.3c-7.2,21-12.2,42.9-17.6,64.5c-5.7,22.4-11.1,44.8-16.3,67.2
					c-21,90.4-38.9,181.6-56,272.8c-2,10.8-4,21.5-6,32.3c-2.1,11.2,3.1,22.7,14.7,25.9c10.6,2.9,23.4-3.6,25.9-14.7
					c4.8-21.7,9.9-43.3,15.9-64.7c3.2-11.3,6.6-22.5,10.4-33.6c3.7-10.8,6.8-18.8,10.8-27.3c9.9-20.7,21-37.1,36.9-52.4
					c8.3-8,13.8-12.3,23.9-18.2c2.3-1.3,4.6-2.6,7-3.8c1-0.5,2.1-1,3.1-1.5c0.2-0.1,3.6-1.6,1.3-0.6c4.6-1.9,11.4-3.9,14.4-4.4
					c1.8-0.3,1.3-0.3,0.5-0.2c-1,0,0.5-0.2,1.2,0.6c-2.1-2.2-2.2-2.7-0.7,0.3c1.1,2.2,0-0.1-0.1-0.5c0.4,1.3,0.8,2.6,1.2,3.9
					c0.3,1.2,1.4,8.3,1,4.5c1.6,13.9,2.3,27.9,2.7,41.8c0.8,28.2-0.7,56.1-3.4,84.2c-2.3,23.9-2.8,53.7,15.6,72.1
					c9.3,9.3,21.9,16.3,34.7,19.3c55.1,13,109.5-30.6,145.3-67.2c21.1-21.6,40.2-45.7,55.9-71.5c12.6-20.6,24.8-43.8,28.7-67.9
					c1.8-10.8,2.6-22.1-0.8-32.7c-3.9-12-11.9-21.6-22-29c-18.2-13.5-43-14.8-64.5-10.1c-56.6,12.3-91.6,66.9-93.8,122.3
					c-0.7,18.5,2,37.4,6.6,55.3c5.7,21.8,13.5,42.8,28.2,60.1c24.6,28.9,62.7,40.7,99.6,41.4c31.7,0.5,64.1-6.2,93.9-16.7
					c16.8-5.9,33.1-13.1,47.8-23.3c20.5-14.3,38-32,53.6-51.5c32.1-40.3,58.1-84.9,79.1-132c10.8-24.1,20.5-48.8,29.1-73.7
					c8.2-23.7,17.1-48,21.8-72.7c6.5-33.7,9.9-73.6-8.6-104.4c-12.7-21-33.8-32.8-57.8-35.7c-68.5-8.1-108,67.1-123.8,122.8
					c-21.3,75-25.4,157.6-12,234.3c5.2,29.9,13.9,61.8,31.5,86.9c8,11.4,17.5,21.8,29.7,28.7c8.8,5,17,10.5,26.4,14.5
					c11.6,5,23.2,8.3,35.7,10c46.9,6.3,93.9-11.4,132.4-37.1c40.7-27.1,74.1-63.5,101.3-103.9c27.6-41.1,48.2-86.5,65.4-132.8
					c8.2-22.2,15.7-44.2,19-67.7c2.8-20.4,3.3-40.6-0.7-60.9c-5.3-27.1-21.2-53.3-45.9-66.8c-20.2-11.1-45.1-14-66.3-4
					c-17.6,8.3-32.1,26.6-42.9,42.2c-14,20.4-23.6,43.8-31.5,67.1c-17.2,51.1-24.8,105.8-23.5,159.6c0.6,24.9,3.3,50,6.9,74.6
					c2.8,19.1,6.8,38.2,13.6,56.3c8.4,22.6,20.2,43.7,39.8,58.2c20.6,15.3,47.6,17.2,71.7,9.8c16.1-4.9,31.2-13,45-22.5
					c9.3-6.4,18.2-13.3,26.8-20.5c9.5-8,17.3-13.7,26.7-21.8c16.1-13.7,27.3-32,37.5-50.2c4.6-8.2,9.1-16.4,14.4-24.2
					c0.7-1.1,1.5-2.1,2.2-3.2c0.1-0.1,2-2.7,0.7-1c-1.5,1.9,1.1-1.3,1.4-1.6c0.6-0.7,1.3-1.5,1.9-2.2c3.4-3.7,7.1-7,10.9-10.3
					c1.8-1.6,3.7-3.1,5.6-4.6c1.1-0.9,2.2-1.8,3.3-2.7c-0.4,0.3-1.9,1.4,0.1,0c4.2-3.1,8.4-6.1,12.7-9c4.4-2.9,8.9-5.7,13.5-8.2
					c3.6-2,10.3-5.4,12.4-6.3c2.2-1,8.5-3.1,12.6-4.2c2.3-0.6,4.6-1.1,7-1.6c0.8-0.2,4.1-0.3,0.3-0.1c1-0.1,1.9-0.2,2.9-0.2
					c2.2,0,4.5,0,6.7,0c1,0,3.9,0.7,0-0.1c0.9,0.2,1.9,0.3,2.7,0.6c1.2,0.4,6.6,2.1,2.9,0.6c2.4,1,4.5,2.4,6.7,3.8
					c7.1-12.1,14.2-24.2,21.2-36.3c-29.2-16.6-62.5-5.7-90.5,7.7c-27.8,13.4-51.9,29.6-69.7,55.4c-32.4,47-40.7,125.6,14.1,160
					c26.6,16.7,59,23.2,89.6,14.6c24.8-7,47.1-22.6,64.1-41.7c35.9-40.3,46.7-98.3,35.3-150.4c-3.1-14-8.4-28.2-17.2-39.6
					c-9.4-12.3-22.1-20.4-36.5-25.7c-27.9-10.3-62.4-5.5-83.8,15.7c-11.4,11.3-5.8,30.8,9.3,35.1c46.2,13.3,94.9,21,142.9,14.7
					c45.6-6,86.3-24.4,122.4-52.7c8.9-7,7.4-22.4,0-29.7c-8.8-8.8-20.8-7-29.7,0c2-1.5-3.9,2.9-4.5,3.3c-1.8,1.3-3.5,2.5-5.3,3.7
					c-4.1,2.8-8.4,5.5-12.7,8c-4.2,2.5-8.6,4.9-13,7.1c-1.9,0.9-3.8,1.9-5.7,2.7c-0.7,0.3-7.8,3.4-4.5,2.1c-8.4,3.4-17,6.3-25.7,8.6
					c-4.7,1.3-9.5,2.4-14.3,3.3c-2.4,0.5-4.9,0.9-7.3,1.3c-1.1,0.2-2.1,0.3-3.2,0.5c2.1-0.2,1.8-0.2-0.8,0.1
					c-44.6,5.2-84.7-1.4-127.5-13.8c3.1,11.7,6.2,23.4,9.3,35.1c1-0.9,6.1-4.6,2.3-2.3c1.7-1.1,3.4-2.1,5.2-3.1
					c0.6-0.3,4-1.7,1.4-0.7c-2.5,1,1-0.3,1.6-0.4c2.6-0.7,5.1-1.3,7.7-1.9c-4.1,0.8,0.7,0,2.5-0.1c2.1-0.1,4.2-0.1,6.4,0
					c1.2,0.1,2.4,0.2,3.6,0.3c-4.2-0.3-1.1-0.2-0.1,0c2.7,0.6,5.4,1.1,8,1.9c2,0.6,4.1,1.3,6,2.1c-4.2-1.7,2.2,1.3,3.1,1.8
					c1,0.6,5.4,3.4,3.8,2.3c-2.1-1.5,0.8,0.7,1.3,1.1c1.1,1,2.1,2,3.1,3c0.8,0.8,1.6,1.7,2.3,2.6c-0.6-0.8-2-3.3-0.2-0.1
					c1,1.8,2.1,3.5,3,5.4c0.6,1.1,1.1,2.2,1.6,3.3c1.4,2.9-1.1-3,0,0.1c1,2.7,1.9,5.4,2.7,8.2c1.3,4.5,2.3,9.1,3.1,13.7
					c0.2,1.4,0.5,2.7,0.6,4.1c-0.5-3.5,0,0,0,0.6c0.2,3.2,0.5,6.3,0.7,9.5c0.2,5.4,0.2,10.8-0.1,16.2c-0.1,2.5-0.3,5.1-0.5,7.6
					c-0.1,1.4-0.3,2.9-0.4,4.3c-0.2,2.2,0.4-1.8-0.2,1.9c-1.7,10.6-4.3,20.9-7.9,31.1c-0.2,0.5-1.7,4.3-0.7,2
					c0.9-2.3-0.6,1.4-0.9,1.9c-0.9,1.9-1.9,3.9-2.9,5.8c-2.1,3.8-4.5,7.5-7,11c-0.6,0.9-1.3,1.7-1.9,2.6c2.6-3.5,0.8-1,0.2-0.3
					c-1.5,1.8-2.9,3.5-4.5,5.3c-3.2,3.6-6.6,7.1-10.2,10.3c-1.6,1.5-3.3,2.9-4.9,4.3c-0.4,0.4-3.5,2.8-1.6,1.3
					c1.9-1.5-1.2,0.9-1.7,1.2c-4.2,3-8.6,5.7-13.1,8.1c-1.1,0.6-2.3,1.2-3.5,1.8c-0.5,0.2-4.2,1.9-2,0.9c2-0.9-1,0.4-1.1,0.4
					c-1.2,0.4-2.5,0.9-3.7,1.3c-2.5,0.8-5.1,1.6-7.7,2.2c-1.4,0.3-8,1.4-4.3,1c-12.9,1.4-19.6,0.4-30.9-3.3
					c-9.5-3.2-19.6-8.7-26.7-16.5c-2.3-2.5,1.5,2.3-0.4-0.5c-0.6-0.8-1.1-1.6-1.7-2.5c-1.4-2.3-2.7-4.6-3.8-7
					c1.6,3.4-1.3-3.6-1.5-4.4c-0.8-2.6-1.5-5.3-2-7.9c-0.3-1.3-0.5-2.7-0.7-4.1c0.1,1,0.2,3.5,0-0.6c-0.1-2.5-0.3-4.9-0.3-7.3
					c0-2.8,0.1-5.6,0.3-8.5c0.1-1.1,0.2-2.1,0.3-3.2c0.5-6.5-0.9,3.6,0.4-2.8c0.9-4.8,2-9.6,3.4-14.2c0.9-2.9,1.9-5.8,3-8.7
					c0.1-0.2,1.5-3.7,0.5-1.3c0.8-1.8,1.6-3.5,2.4-5.2c12-24.4,27.3-37.6,51-50.3c5.8-3.1,11.7-6.1,17.7-8.9
					c4.9-2.3,10.1-4.3,16.9-6.2c3.2-0.9,6.5-1.7,9.9-2.2c2.5-0.4,0.3,0-0.2,0c2.1-0.2,4.2-0.3,6.4-0.3c1,0,2.1,0.1,3.1,0.1
					c2.3,0.1-2.2-0.8,1.5,0.3c1.3,0.4,2.6,0.7,3.9,1.1c-3.3-1.1,1.7,0.9,2.4,1.3c9.9,5.6,23,2.3,28.8-7.5c6-10.2,2-22.6-7.5-28.8
					c-38.1-24.8-86-2.1-118.5,21.4c-17.2,12.4-32.9,25.6-45.1,43.1c-10.3,14.8-17.6,31.4-27.7,46.3c-1.3,2-2.7,3.9-4.1,5.8
					c-1.4,1.9-0.1,0.2,0.1-0.2c-0.7,0.8-1.3,1.6-2,2.4c-3.5,4.1-7.3,8-11.3,11.6c-3.6,3.2-6.2,4.4-11,8.1
					c-4.9,3.8-9.3,8.2-13.9,12.2c-8.7,7.4-12,10-21,16.2c-6.6,4.5-13.3,8.6-20.4,12.3c-1.6,0.8-3.3,1.6-4.9,2.4
					c-0.7,0.3-5.1,2.2-2.3,1.1c2.8-1.1-1.9,0.7-2.8,1c-1.7,0.6-3.4,1.2-5.2,1.7c-2.6,0.8-5.3,1.5-8,2c-1.1,0.2-4.7,1.5-1.3,0.3
					c3.3-1.1-1,0.1-2.3,0.2c-2.3,0.2-4.7,0.2-7.1,0.1c-1.2-0.1-2.4-0.3-3.6-0.3c-0.5,0,5.2,1.1,1.1,0.1c-2.2-0.6-4.4-1.1-6.6-1.8
					c-0.3-0.1-2.5-1.1-2.7-1c0.2-0.2,5,2.5,2.4,1c-0.5-0.3-1.1-0.5-1.7-0.8c-1.8-1-3.6-2-5.3-3.1c-0.5-0.3-2.3-2-2.7-1.9
					c1.1-0.4,4.2,3.7,0.6,0.3c-3.2-3-5.9-6.3-9-9.4c-0.5-0.5,3.1,4.3,0.6,0.7c-0.6-0.8-1.2-1.6-1.7-2.5c-1.3-2-2.6-4-3.8-6
					c-2.4-4.2-4.5-8.6-6.5-13c-1.5-3.1,2,5.1,0.3,0.7c-0.4-1-0.8-2-1.2-3c-1-2.5-1.8-5-2.7-7.5c-1.5-4.5-2.9-9.1-4.1-13.7
					c-2.4-8.9-4.3-17.8-5.8-26.9c-0.7-4.1-1.3-8.2-1.9-12.3c-0.6-4.3,0.7,6,0-0.3c-0.2-1.7-0.4-3.4-0.6-5
					c-0.8-7.1-1.6-14.2-2.3-21.3c-4.8-49.4-2-99.1,9.6-147.2c5.4-22.3,13-46.3,22-65.4c9.5-20.1,20-36.6,37-50.5
					c1.7-1.4,1.6-1.4,4-2.7c0.7-0.4,1.5-0.7,2.1-1.1c2-1.3-5.5,1.7-2,0.9c1.7-0.4,3.4-1,5-1.4c1-0.3,4.1-0.6-0.1-0.1
					c-4.4,0.5-0.3,0,0.8,0c1.8-0.1,3.6-0.1,5.4-0.1c1,0,2,0.2,3,0.2c4.1,0.2-4.6-1-1.7-0.2c1.8,0.5,11.4,4.2,12.5,3.6
					c-0.9,0.5-5-2.4-1.5-0.5c1,0.6,2.1,1,3.1,1.6c2.1,1.2,4,2.5,6,3.8c3.8,2.6-2.9-2.7-0.5-0.4c0.9,0.9,1.9,1.7,2.8,2.5
					c1.9,1.8,3.6,3.8,5.4,5.7c3,3.3-1.9-3,0-0.1c0.7,1,1.4,2,2,3c1.6,2.5,3.1,5,4.4,7.6c0.3,0.6,2.5,5.5,1.1,2.3
					c-1.4-3.2,0.7,2,0.9,2.6c1.1,3.2,2.1,6.5,2.9,9.8c0.4,1.5,0.7,3,1,4.5c0.1,0.7,1.1,6.5,0.7,3.5c-0.4-2.7,0.3,2.8,0.4,3.9
					c0.2,2,0.3,4.1,0.4,6.1c0.4,9.2-0.1,18.3-1.1,27.4c-0.3,2.5,0,0.2,0.1-0.2c-0.2,1.5-0.4,2.9-0.7,4.4c-0.4,2.3-0.8,4.5-1.2,6.8
					c-1.1,5.6-2.2,11.3-3.7,16.7c-3.2,11.1-7.4,22.1-11.4,32.9c-15.2,41.6-33.6,82.1-58.1,120.2c-12.2,19-24.2,34.8-39.5,51.3
					c-14.5,15.7-30.6,30.3-46.6,41.5c-8.7,6.1-17.7,11.6-27.1,16.6c-10.2,5.4-16.5,8.3-26.9,11.8c-4.7,1.6-9.4,3-14.2,4.2
					c-2.6,0.6-5.1,1.2-7.7,1.7c-1,0.2-7.1,1.2-4.3,0.8c-10.1,1.4-20.7,1.5-30.8,0.3c3,0.4-2.3-0.4-3.1-0.6c-2.5-0.5-5.1-1.1-7.6-1.7
					c-2.5-0.7-5-1.4-7.5-2.3c-1.1-0.4-2.1-0.8-3.2-1.2c-3.5-1.3,2.1,1-1.3-0.5c-8.3-3.7-15.8-8.8-23.7-13.4
					c-0.9-0.5-1.8-1.1-2.7-1.7c-4.4-2.7,0,0.5,0.3,0.4c-0.8,0.3-5.1-4.5-5.8-5.3c-1.9-2-3.6-4.2-5.5-6.2c1.9,2.1,2,2.8,0.3,0.3
					c-1-1.4-1.9-2.8-2.9-4.2c-3.3-5.1-6.2-10.5-8.8-16.1c-0.7-1.5-1.4-3.1-2.1-4.6c1.5,3.2,0.7,1.7-0.1-0.5
					c-1.4-3.6-2.7-7.2-3.9-10.8c-4.9-14.8-8.3-30-10.8-45.3c-0.3-1.8-0.6-3.6-0.9-5.4c-0.1-0.7-1-6.8-0.7-4.5
					c0.3,2.3-0.5-3.9-0.5-4.6c-0.3-2.2-0.5-4.4-0.7-6.6c-0.9-9-1.5-18-1.9-27c-0.8-18.4-0.7-36.8,0.3-55.1
					c0.5-9.1,1.2-18.3,2.1-27.4c0.4-4.4,1-8.7,1.5-13.1c0.5-4.3,0.2-1.3,0-0.4c0.1-1,0.3-2,0.4-3c0.4-2.7,0.8-5.3,1.2-7.9
					c2.8-17.7,6.5-35.3,11.4-52.5c2.3-8,4.8-16,7.6-23.8c1.3-3.6,2.6-7.3,4.1-10.9c1.5-3.6,0.5-0.9,0.2-0.2c0.5-1,1-2,1.5-3
					c1.3-2.7,2.7-5.3,4.1-7.9c2.3-4.3,4.7-8.4,7.4-12.5c1.4-2.2,2.9-4.3,4.4-6.4c0.6-0.9,1.3-1.8,2-2.7c-1.3,1.7,0.4-0.5,0.9-0.9
					c3.4-3.9,6.8-7.6,10.7-11.1c3.5-3.1,4.6-4,9.9-7.2c5.3-3.2,6.9-4.2,12.1-5.6c1-0.3,2-0.4,3-0.7c0.6-0.1,1.2-0.2,1.8-0.3
					c3.3-0.7-6.2,0.5-2.7,0.4c3-0.1,5.9-0.4,8.9-0.4c1.6,0,3.2,0.2,4.7,0.3c6.4,0.4-4.9-1.1,0.9,0.1c3.5,0.8,7.1,2.5,10.6,3
					c0.5,0.1-5.1-2.5-1.5-0.6c0.8,0.4,1.6,0.8,2.3,1.2c1.9,1,3.7,2.5,5.6,3.5c1,0.5-4-3.5-1.4-1c0.8,0.7,1.7,1.4,2.4,2.2
					c1.1,1.1,4.3,3.5,4.6,5c0,0.2-3.2-4.7-1.4-1.8c0.3,0.4,0.6,0.9,0.9,1.3c0.6,0.9,1.2,1.8,1.7,2.7c0.7,1.1,1.3,2.3,1.9,3.4
					c0.3,0.5,0.5,1,0.8,1.5c2,3.9-0.6-1.2-0.5-1.2c0.8-0.3,4.4,16,4.7,17.3c0.9,4.9-0.1-2.8,0.2,1.2c0.1,1.6,0.3,3.2,0.4,4.8
					c0.3,4.4,0.3,8.7,0.2,13.1c-0.1,4.2-0.4,8.4-0.8,12.7c-0.2,2.1-0.4,4.2-0.7,6.3c0.4-3.2-0.1,0.5-0.1,0.9c-0.2,1.5-0.5,3-0.7,4.5
					c-1.9,11.8-5,23.1-8.5,34.5c-13.7,45.6-29.8,90.2-50.6,132.7c-20.5,41.7-45.1,82.9-75.6,116.4c-15.1,16.5-29.7,29.3-49.4,39.3
					c-2.2,1.1-4.4,2.1-6.5,3.1c-5.1,2.4,3-1.2,0.1,0c-2.5,1-5,2-7.5,2.9c-5.8,2.2-11.7,4.2-17.6,6c-13.9,4.2-27.9,7.1-42.2,9.6
					c-2.4,0.4,1.3-0.2,1.4-0.2c-0.8,0.1-1.7,0.2-2.5,0.3c-2,0.2-3.9,0.4-5.9,0.6c-4,0.4-7.9,0.6-11.9,0.7c-8,0.3-15.9-0.2-23.8-0.8
					c-4.2-0.3,3,0.6-1.1-0.1c-1.9-0.3-3.9-0.6-5.8-1c-3.9-0.8-7.7-1.7-11.4-2.8c-1.9-0.6-3.7-1.2-5.6-1.8c-1.7-0.6-4.6-1.8-1.2-0.3
					c-3.9-1.7-7.6-3.6-11.2-5.7c-1.5-0.9-2.9-1.8-4.3-2.7c-1.2-0.8-5.2-3.8-2-1.3c-3.2-2.6-6.2-5.3-9.1-8.3
					c-1.5-1.5-2.8-3.1-4.2-4.7c-1.6-1.8,0.2,0.4,0.4,0.6c-0.6-0.7-1.1-1.5-1.7-2.3c-2.8-3.9-5.2-8.4-6.2-10.8
					c-3.5-9-6.7-18.1-9.1-27.4c-1.1-4.1-2.1-8.3-2.9-12.4c-0.4-2.2-0.8-4.3-1.2-6.5c-0.2-0.9-0.3-1.8-0.4-2.7c0.5,3,0.2,1.4-0.1-0.7
					c-0.8-7.6-1.1-15.2-0.8-22.8c0.1-3.4,0.6-6.8,0.8-10.2c0.2-3-0.7,4-0.1,1.1c0.1-0.7,0.2-1.5,0.4-2.2c0.3-1.9,0.7-3.9,1.1-5.8
					c1.4-6.2,3.6-12.1,5.6-18.1c0.7-2.2-0.8,1.9-0.8,1.9c0.4-0.8,0.7-1.6,1.1-2.4c0.6-1.2,1.1-2.4,1.7-3.6c1.5-2.9,3.1-5.7,4.8-8.4
					c1.5-2.3,3.1-4.4,4.6-6.7c-1.6,2.4-2.1,2.6-0.2,0.4c1.1-1.2,2.1-2.5,3.2-3.7c3-3.3,7.9-9.7,12.1-11.2c-2,0.7-3.3,2.4-0.6,0.5
					c1.1-0.7,2.2-1.5,3.3-2.2c2.2-1.4,4.4-2.8,6.7-4c2.1-1.1,4.3-2.1,6.4-3.2c3.1-1.6-4.7,1.7-0.6,0.2c1.3-0.5,2.6-1,4-1.5
					c4.4-1.5,8.9-2.5,13.4-3.4c4.3-0.8-2.1,0.1-1.2,0.1c1,0,2-0.2,2.9-0.3c2.4-0.2,4.8-0.2,7.2-0.1c1.4,0,8,0.8,3.7,0.2
					c-4.2-0.6,2.4,0.5,3.8,0.9c1.8,0.5,3.6,1.2,5.4,1.7c3.1,0.9-4.9-2.6-1.5-0.6c1,0.6,2,1,3,1.6c1,0.5,3.6,3,4.5,3
					c-1.2,0-4.2-3.8-1.7-1.2c0.8,0.8,1.6,1.5,2.4,2.3c0.6,0.7,1.2,1.6,1.9,2.2c0.8,0.7-3-4.6-1.3-1.5c0.5,0.9,1.1,1.7,1.6,2.6
					c2.1,3.3-1.3,1-0.6-1.8c-0.2,0.8,1.1,3.5,1.3,4.3c0.2,0.7,0.2,1.5,0.4,2.2c-0.2-0.5-0.3-5.9-0.3-1.8c0,1.8,0.1,3.5,0,5.3
					c0,1-0.2,2-0.2,3c-0.2,4.1,0.9-4.6,0.2-1.5c-1.9,9.2-3.6,20.4-8.5,28.5c1.4-2.3,1.5-3.4,0.2-0.6c-0.6,1.3-1.2,2.6-1.8,4
					c-1.3,2.7-2.6,5.4-4,8.1c-2.8,5.4-5.8,10.7-8.9,16c-7,11.7-14.9,22.9-23.1,33.8c2.1-2.8,0.9-1.2-0.4,0.5
					c-1.1,1.4-2.2,2.8-3.3,4.2c-2.3,2.8-4.5,5.5-6.9,8.2c-4.5,5.2-9.1,10.4-13.9,15.4c-9.7,10.2-20,19.8-30.9,28.7
					c-1.1,0.9-2.3,1.8-3.4,2.7c-2.9,2.4,3.3-2.4-0.9,0.7c-2.7,2-5.3,3.9-8.1,5.8c-5.1,3.5-10.3,6.8-15.6,9.8
					c-2.7,1.5-5.3,2.9-8.1,4.2c-1.1,0.6-2.3,1.1-3.5,1.6c-4.7,2.3,2-0.6-0.7,0.4c-5.2,1.9-10.4,3.8-15.8,5.1
					c-2.4,0.6-4.8,0.8-7.2,1.4c-1.3,0.3,5.3-0.4,1.2-0.2c-1.4,0.1-2.9,0.2-4.3,0.3c-2.3,0.1-4.6,0-6.9-0.1c-1.7-0.1-4.4,0.6-1.3-0.1
					c2.9-0.6,0.6,0.1-1.3-0.3c-2.4-0.5-4.6-1.2-6.9-2c-3.9-1.3,0.9-0.4,1.2,0.6c-0.1-0.5-3.1-1.5-3.7-1.9c-2-1.1-3.8-2.7-5.9-3.7
					c-0.3-0.1,3.5,3.1,0.3,0.2c-1-0.9-3.6-4.1-1.4-0.8c-4.6-7-5.3-14.6-5.3-24.1c0.1-11.4,1.7-22.7,2.7-34.1
					c2.4-27.5,2.9-55.1,1.5-82.7c-1.1-22.6-0.2-52.1-18.4-68.7c-21.6-19.6-52.8-7.5-74.8,5c-39.4,22.5-66.7,60.9-83.8,102
					c-16,38.4-25.4,79.4-34.5,119.8c13.5,3.7,27,7.5,40.6,11.2c15.9-85.8,32.3-171.5,51.1-256.7c9.4-42.6,19.3-85.1,30.2-127.3
					c5.1-20,9.8-40.3,17.1-59.6c2.5-6.7,4.2-10.5,8.4-18.3c1.8-3.2,3.6-6.4,5.7-9.5c0.9-1.4,2-2.8,2.9-4.2c2.4-3.6-2.4,2.6,1.1-1.5
					c1.8-2,3.5-4.1,5.5-6c1.3-1.3,8.2-6.4,2.8-2.8c2-1.3,3.9-2.7,6-3.8c0.2-0.1,2.9-1.5,3-1.5c0.2,0.3-5.8,1.8-1.1,0.6
					c1-0.2,2-0.5,2.9-0.8c4.5-1.3-1.7,1.2-1.8,0.1c0-0.4,5.5,0.1,5.5,0c-0.6,1.7-6.1-1.6-2-0.1c0.8,0.3,1.8,0.6,2.6,0.8
					c2.9,0.4-3.7,1.5-2.5-1.1c0-0.1,2.9,1.6,3.2,1.8c4.1,2-2.2-0.8-1.3-1.1c0.2-0.1,1.9,1.7,2.1,1.9c0.6,0.7,1.3,1.6,2,2.2
					c2.8,2.4-2.6-4.4-0.8-1c0.8,1.6,1.9,3,2.7,4.6c0.3,0.5,1.6,2.5,1.5,3c-1.3-3.3-1.6-3.8-0.8-1.8c0.3,0.8,0.5,1.5,0.8,2.3
					c0.8,2.4,1.3,4.9,1.9,7.4c0.3,1.4,0.7,5.9,0.1-0.2c0.1,1.4,0.3,2.8,0.4,4.2c0.5,6.3,0.1,12.5-0.4,18.7c-0.5,5.5,1.2-4.3-0.2,1.2
					c-0.5,2.1-1,4.2-1.6,6.3c-1.1,3.8-2.3,7.5-3.5,11.2c-3.5,10.2-5.9,16-10.4,25.1c-8.2,16.8-18.1,32.7-29.3,47.7
					c-20.2,27.2-49.3,54.8-77.6,77.1c-15.1,11.8-35,25.4-52.9,36.8c-21,13.3-42.5,25.9-64,38.3c-43.1,24.7-86.7,48.9-127.6,77.3
					c-9.3,6.5-13.6,18.4-7.5,28.8C233.5,627,247.4,631.8,256.8,625.4L256.8,625.4z"/>
			</g>
		</g>
	</g>
	<g>
		<g>
			<g>
				<path fill="#FFFFFF" d="M987.5,1093.9c-1-11.6-2.1-23.2-3.4-34.7c-0.3-3-1.4-6-2.2-9.1c-2.6,0.8-4.6,1.4-6.5,2
					c-0.4,0.1-0.8,0.3-1.1,0.5c-3.8,2-4.2,4-2.7,7.9c1.3,3.5,2.2,7.3,2.5,11.1c0.2,3.6-1.7,6.6-5.3,8.1c-2.8,1.1-4.9,0.5-5.6-2.7
					c-0.6-2.8-0.9-5.7-1.5-8.5c-1.3-5.7-3.1-6.2-7.8-2.5c-7.8,6.2-15.8,12.2-23.6,18.5c-0.9,0.7-1.6,2.6-1.3,3.5
					c1.3,3.9,2.9,7.7,4.5,11.5c1.1,2.5,1.7,5.6,5.5,5.8c3.8,0.2,4.8-2.6,6-5.1c0.2-0.4,0.3-0.9,0.6-1c2-1.1,4.2-3.2,6.1-3
					c1.9,0.2,4.9,2.5,5.1,4.2c0.8,4.6,0.9,9.5,0.2,14.1c-0.6,4-3.6,6.1-8.1,5.8c-5.5-0.3-7.5,1.7-7.3,7.3c0.2,7.5,2.1,14.4,9.8,19.3
					c6.6-6.6,13.3-13.5,20.3-20.6c-0.3,3.7-0.5,7-0.8,10.3c0.4,0.2,0.8,0.4,1.2,0.6c1.8-1.7,3.6-3.4,5.4-5c0.2,0.2,0.5,0.4,0.7,0.6
					c-2.1,2.5-4.3,5.1-6.4,7.6c-0.5-0.2-1.1-0.5-1.6-0.7c0-3,0-5.9,0-8.3c-5.8,5.5-11.8,11-17.7,16.7c-0.7,0.7-0.7,2.2-0.7,3.3
					c0.5,7.4-1.2,14.2-5,20.5c-2.7,4.6-6.5,7.7-12.3,7.8c-1.7,0-3.6,0.5-5.1,1.3c-2.9,1.4-5,7.1-3.3,9.3c2.6,3.5,5.2,0.6,7.5-0.6
					c2.7-1.5,5.2-3.3,7.8-5c0.4,0.4,0.9,0.7,1.3,1.1c-1.7,2.6-3.4,5.2-5.1,7.9c-0.6,0.7-1.3,1.3-1.9,2c-2.7,3.8-5.4,7.6-8.2,11.5
					c0.1,0.2,0.3,0.4,0.4,0.5c4.7-2.7,9.5-5.5,14.2-8.2c-6.8,6.5-17.4,8-21.6,17.7c0.4-1.4,0.8-2.8,1.4-4.5
					c-6.9,2.4-11.1,6.1-19.4,7.3c1.3-1.9,2.4-5.8,2.2-6.1c-5.3,0.9-12.5,4-18.1,7.9c1.8,1.5,2.2,2.1,3.8,3.5
					c-3.5,1.6-5.5,2.1-8.5,2.9c-5.4,1.5-11,2.4-16.5,3.7c-2,0.4-6.2,6.8-5,7.5c1.5,0.9,3.8,0.4,5.8,0.6c0.2,0,0.3,0.2,0.8,0.6
					c-2.3,0.5-4.3,1-6.3,1.2c-3.7,0.3-4.5-1-2.9-4.3c0.5-1.1,0.7-2.3,1.1-3.5c-11.8,2.9-23,5.6-34.9,8.5c2.5,0.5,4.4,0.8,6.3,1.1
					c0,0.5,0.1,1,0.1,1.5c-4.3,0.8-8.5,1.6-12.8,2.4c0-0.3-0.1-0.5-0.1-0.8c3.1-0.6,6.1-1.1,9.2-1.7c-0.1-0.3-0.2-0.5-0.2-0.8
					c-1.9-0.6-3.9-1.1-5.8-1.7c0.1-0.2,0.1-0.5,0.2-0.7c12.5-3.1,25-6.2,38-9.4c-1.1-2.5-1.7-3.9-2.4-5.2c-2.5-4.9-3.1-5.2-8.4-3.5
					c-3.3,1-6.4,2.7-9.7,3.3c-4.1,0.8-8.4,1.3-12.5,1c-3.6-0.3-5-3.6-5.2-7c-0.2-3.3,2.2-5.1,4.9-5.7c4.5-1.1,9.2-1.7,13.7-2.6
					c3.1-0.6,6.3-1.1,9.1-2.3c1.5-0.7,2.9-2.8,3.1-4.4c0.1-1-2.1-2.6-3.5-3.3c-4.4-2-8.4-4.3-10.4-8.9c-1.1-2.6-2.7-3.2-5.2-2.6
					c-10.3,2.4-20.6,4.8-30.8,7.4c-2,0.5-3.6,2.2-5.4,3.4c1.4,1.4,2.6,2.9,4.1,4.1c3.4,2.8,3.5,5.3-0.4,6.7
					c-9.2,3.3-18.6,3.5-27.9,0.5c-4.4-1.4-5.3-3.9-3.8-8.4c1.3-4.2,1-4.7-3.4-4.9c-8.1-0.3-16.2-0.6-24.3-1
					c-3.5-0.2-6.9-0.7-10.4-1.1c2.5,4.3,5.5,7.6,8.3,11c2.8,3.3,5.5,6.7,8.2,10.1c-0.3,0.3-0.6,0.5-0.9,0.8
					c-1.9-0.4-3.9-0.8-6.4-1.2c0.8,1.6,1.3,2.5,1.7,3.5c-0.2,0.1-0.4,0.3-0.7,0.4c-1.3-1.6-2.6-3.2-3.8-4.8c0.2-0.3,0.4-0.7,0.6-1
					c2.1,0.3,4.2,0.6,7,1.1c-5.1-5.8-9.8-10.9-14.2-16.4c-2.2-2.7-4.5-4.2-7.9-5.1c-4.2-1.1-12.9-4.4-12.9-4.4
					c-1.1-1.3-0.9-3.4-1.6-4.8c-2.4-4.7-5.1-8.4-11.7-11.1c0.6,2.1,4.3,8.5,3.1,9.2c-1.4-0.4-6.2-3.8-7.3-4.7
					c0.2,1.6,0.8,2.7,1.5,3.7c16.2,23.2,36.8,41.4,62.5,53.3c11.5,5.3,24,8.6,36.1,12.6c2.3,0.8,5.1,0,7.5,0.7
					c10,3.1,20.3,3.2,30.6,2.5c1.4-0.1,3.2-2,3.9-1.5c4.7,2.8,9.5,1.1,14.1,0.5c5.8-0.7,11.6-2,17.3-3.1c-0.1-0.2-0.1-0.4-0.2-0.5
					c-2.9-0.7-5.9-1.4-8.8-2.1c0-0.4,0-0.8,0-1.1c1.4-0.5,2.9-0.9,3.6-1.1c0.4,1,0.6,1.9,0.9,2c6.3,1,12.5,1.2,18.5-1.5
					c2.4-1.1,4.9-1.9,7.2-3c9.1-4.5,18.7-8.4,27.1-14c9.3-6.3,17.6-14.3,26.2-21.6c9.3-7.9,16.4-17.7,22.9-27.9
					c13.8-21.4,21.5-44.9,23.9-70.7c-1.4,1.2-2.5,2.1-3.5,3C986.6,1105.2,988,1099.7,987.5,1093.9z M812.9,1246.8
					c-0.8-0.1-1.9,0-2-0.3c-1.9-4.2-5.6-2.6-8.7-2.7c-4.5-0.2-9.1-0.4-13.6-0.3c-1.4,0-2.8,1-4.9,1.9c-1.4-0.9-3.9-2.3-5.8-3.5
					c0.1,0,1.2-0.1,3.4-0.2c-7.2-4.7-13.5-8.8-19.9-12.9c-0.6-0.4-1.8-0.4-2.3,0c-3,2.6-5.6,0.8-7.8-0.3c1.5-0.4,3.4-1.3,5.2-1.3
					c2.2,0,4.7,0.2,6.5,1.3c6.4,3.8,12.4,8,18.8,11.8c2,1.2,4.5,1.9,6.9,2c6.4,0.3,12.9,0.2,19.3,0.4
					C810.5,1242.9,813.1,1243.1,812.9,1246.8z M949.2,1117c5.2-0.1,6.7-1.1,7.1-6.3c0.2-2.9,0-6.1-0.9-8.9c-1.2-3.7-5.9-4.1-8.1-0.9
					c-0.6,0.9-1.1,1.9-1.6,2.9c-1.2,3-3.4,4.6-6.6,4.6c-3.3,0-5.3-1.9-6.5-4.8c-2.3-5.4-4.6-10.8-7-16.5c-6.8,2.9-13.2,5.9-19.9,8.4
					c-4.1,1.5-8.4,2.7-12.7,3.5c-3.5,0.6-4.8-1.4-3.6-4.7c0.6-1.7,1.5-3.2,2.2-4.9c1.4-3.5,0.1-5.9-3.5-5
					c-6.7,1.6-13.6,3.3-19.7,6.4c-6.3,3.2-6,5.7-0.1,9.5c5.8,3.8,6.2,9.3,0.1,12.6c-5.8,3.2-12,6.1-18.4,7.7
					c-6.7,1.7-13.8,1.8-20.8,2.7c-1.2,0.2-3.3,1.2-3.3,1.9c0,7.5-0.7,15.1,3.8,21.9c1.7,2.5,3.5,3.4,6.2,1.6c3-2.1,5.9-4.4,9-6.3
					c2.1-1.3,4.4-2.9,6.8-3.3c4.3-0.7,8.4,0.4,10.5,4.7c2.9,5.8,3.5,12,0.2,17.8c-2.4,4.2-6.6,2.9-10.4,2.3
					c-6.6-1-11.8,1.2-15.6,6.8c-3.4,5-1.5,9.5,0.9,14.3c2.1,4.1,5.2,1.8,7.9,2c1.9,0.2,3.8-0.1,5.8-0.2c11.4-0.9,22.6-2.9,32.9-8.2
					c1.4-0.7,2.6-1.6,4.3-2.7c-1.3-0.7-1.8-1.1-2.4-1.4c-6.9-3.5-7.5-7.4-1.5-12.2c7-5.6,15.3-8.7,24.1-9.7c5.4-0.6,7.3,1.9,5.8,7.3
					c-0.7,2.4-1.6,4.8-2.6,7.7c16.1,0.2,25.3-10.9,36.8-18.8c-7.8-6.3-8.7-14.6-8.2-23.1C940.5,1119.6,943.5,1117.1,949.2,1117z
					 M803,1076.9c-2.5-0.5-5.2-1-7.7-0.7c-1.7,0.2-3.7,1.3-4.8,2.6c-2.8,3.7-1.6,13.9,1.7,17.1c2.1,1.9,4.1,2.6,6.3-0.1
					c4.4-5.4,10.9-6.4,16.9-2.8c6.1,3.6,8.8,9.2,9.8,15.9c0.5,3.6,0.7,7.3,1.1,11.1c14.1-0.1,27.6-1.4,39.7-9.2
					c4.5-2.9,4.6-5.2-0.1-8.1c-7-4.3-7.5-8.4-1-13.6c6.8-5.5,15-7.5,23.4-8c5.2-0.3,7.7,3.5,6.3,8.5c-0.6,2.3-1.7,4.4-2.7,6.9
					c1.1-0.1,1.8,0,2.4-0.2c9.8-4,19.5-8.1,29.2-12.3c0.8-0.4,1.4-2.2,1.4-3.3c-0.2-8-3-15.3-7.2-22c-0.8-1.3-2.4-2.7-3.9-2.9
					c-0.8-0.1-2.3,1.9-2.9,3.1c-1.9,3.9-5,5.6-9.1,6.2c-4,0.6-6.6-1.6-8.5-4.6c-1.3-1.9-2.3-4.1-3-6.3c-2.8-8.8-0.1-12.6,9-13.2
					c0.3,0,0.5,0,0.8,0c2.9,0,3.8-1.7,2.9-4c-1.2-3.3-2.7-6.6-4.3-9.7c-1.5-2.9-3.5-3.6-7-2.4c-7.7,2.5-15.5,4.9-23.4,6
					c-7.7,1-9.5-1.9-7.2-9.3c0.8-2.7,0.1-3.9-2.7-4.1c-7-0.6-13.4,1.1-19.2,4.9c-3.1,2.1-3,4.3,0.3,6.2c1.1,0.6,2.4,0.7,3.4,1.4
					c1.9,1.3,5.2,3,5,4.2c-0.3,2.3-2,5.2-4.1,6.5c-3,1.8-6.6,2.6-10.1,3.3c-7.6,1.7-15.3,3-23.3,4.6c0.3,1.3,0.6,2.5,0.8,3.6
					c1.1,4.7,2.6,9.3,3.3,14C815.7,1074.1,810.9,1078.3,803,1076.9z M774.6,1212.1c6.8,0.3,21.9,1.5,26.3-3.1
					c-1.3-2.2-6-6.1-7.7-7.7c2-1.7,4-3.5,6.1-5.1c0.4-0.3,1-0.5,1.5-0.6c8.4-2.1,16.7-4.3,25.2-6.3c2.9-0.7,5.9-1,9-1.6
					c-0.7-1.4-1.2-2.4-1.7-3.4c-3.5-5.8-2.9-11.1,1.2-16.4c4.9-6.4,11.5-7.9,19.1-6.9c6.6,0.9,7.8-0.2,7.8-6.8
					c0-1.6-0.2-3.3-0.5-4.9c-0.7-3.2-2.1-6-5.6-7c-3.3-0.9-6.2,0.1-8.6,2.7c-0.9,1-1.9,2-3,2.9c-10.1,8.1-17.6,5.5-20.1-7.3
					c-1-5.3-1.1-10.8-1.6-16.3c-8.9-1.1-33,4.3-47.5,10.7c1.5,1.3,2.8,2.4,4,3.5c5.5,5.1,4.8,9.4-2.3,11.7
					c-5.4,1.7-10.9,3.1-16.5,3.6c-3.1,0.2-6.7-1.2-9.4-3c-3.3-2.2-3.2-6.2-0.5-9c3-3.1,2.8-5-1.1-6.8c-1.8-0.8-4-1.3-6-1.2
					c-8.1,0.5-16.2,1.2-24.2,2.1c-1.2,0.1-3.1,1.8-3,2.8c0,5-0.1,10.1,1.1,14.9c1.7,6.5,7.1,8.3,12.8,4.6c2.6-1.6,4.7-1.3,6.8,0.2
					c4.8,3.4,7.8,8.1,8.6,14c0.7,4.9-2.2,7.8-7,7c-2.9-0.5-5.8-1.6-8.6-2.7c-3.1-1.2-7.2,0.7-6.6,3.7c0.9,4.6,2.6,9.3,4.9,13.3
					c0.9,1.5,4.6,1.7,7.1,1.9c10.1,0.8,20.3,1.2,30.4,2c6.7,0.5,7.9,2.5,5.8,8.7C769.6,1209.6,770.6,1211.9,774.6,1212.1z
					 M745.7,1060.3c-0.2-0.5-0.3-1-0.5-1.5c-10,0.6-20,1.2-30.5,1.9c0.2,3.3,0.4,5.3,0.3,7.3c-0.3,4.9-0.3,9.9-1.3,14.7
					c-1.1,5.4-4,6.5-9,4.4c-2.7-1.1-5.3-1.1-6,2c-0.8,3.1-1.1,6.5-0.6,9.7c0.7,4.4,2.8,5,6.5,2.6c3.8-2.6,6.4-2,7.9,2.4
					c1.1,3.2,1.8,6.6,2.2,10c0.7,6.1,1,12.2,1.4,18.5c8.3-0.7,16.2-1.3,24.2-1.9c4.6-0.4,8.7,0.9,12.1,4.2c3.5,3.3,3.5,5.9-0.1,9.3
					c-2.3,2.2-1.9,4.9,1,6.1c1.5,0.6,3.3,0.9,4.8,0.7c4.9-0.7,9.8-1.4,14.5-2.7c7.7-2.1,7.8-3.2,2.1-8.7c-4.5-4.2-4.1-6.6,1.5-8.9
					c12.8-5.2,26.3-7.9,40-9.4c6.8-0.7,6.8-0.6,6.3-7.6c-0.6-6.8-2.1-13.1-8.1-17.2c-4.6-3.2-9.6-2.5-13.2,1.5
					c-3.7,4.3-7.9,4.3-11.5-0.1c-4.1-5.1-4.7-11-3.3-17.2c1.1-4.7,4.2-7.3,9.1-7.5c2.8-0.1,5.7,0.4,8.5,0.9c5.1,0.8,8.3-1.9,7.2-6.8
					c-1.2-6-2.9-11.9-4.6-18.9c-12.4,2.7-24.3,5.2-36.2,7.9c-1.2,0.3-2.2,1.4-3.3,2.2c4.6,5,5.2,8.2,2.6,11.5
					c-4.6,5.7-17.1,8.9-23.9,6.1c-5.7-2.3-7-7.5-3.1-12.2C743.7,1062.4,744.7,1061.4,745.7,1060.3z M934.5,1177.1
					c2.6-0.5,5.6-0.9,7.8-2.3c6.1-3.9,9.5-16.7,6.7-23.9c-1.3,0.9-2.5,1.7-3.7,2.6c-4.6,3.5-8.9,7.5-13.9,10.3
					c-5.2,2.9-10.9,5.1-16.7,6.4c-5.1,1.2-6.5-1.2-4.7-6.1c0.6-1.7,1.3-3.3,1.7-5.1c0.7-2.6-0.5-4.3-3.1-3.8
					c-8.5,1.4-16.5,4.2-23.2,9.8c-3.4,2.9-3,4.7,0.8,6.9c5.3,3,5.6,5.6,0.1,8.1c-6.9,3.1-14.2,5.8-21.6,7.6
					c-7.8,1.8-15.9,2.2-24.7,3.3c1.2,1.8,2,3.7,3.4,4.7c2.7,2.1,5.7,3.8,8.6,5.5c3.9,2.3,4.8,5.3,1.4,8.2c-2.6,2.3-6.3,3.8-9.7,4.6
					c-4.9,1.3-10,1.5-15,2.4c-2.5,0.5-4.9,1.7-4.4,4.9c0.5,3.4,2.5,5.7,6,5.5c2.8-0.1,5.6-1.1,8.4-1.9c3.9-1.1,7.8-2.5,11.8-3.7
					c4.3-1.2,7.5,0,9.4,4.3c0.7,1.7,1.7,3.4,2.8,5.5c8.4-1.9,16.7-3.9,25.5-5.9c-1.3-1.7-2-2.6-2.9-3.8c6.6-5.2,13.4-8.4,22.5-8.6
					c-1.1,2.2-1.7,3.5-2.9,5.8c8.4-4,17-5.1,22.3-12.8c3-3.3,12.4-16.2,13.5-18.7c-3.8,2.3-6.8,4.5-10.1,6.1
					c-1.5,0.7-4.2,1.1-5.2,0.3c-1.1-0.9-1.3-3.4-1.1-5.2C924.6,1182.1,928.6,1178.2,934.5,1177.1z M944.8,1016.5
					c-1,2-3.6,3.7-5.9,4.4c-5.3,1.4-10.7-2.1-11.8-7.5c-0.6-3.1-2.1-3.8-4.5-2.6c-8,4-16,8.2-23.6,12.1c2.1,4.1,4.6,7.7,5.9,11.8
					c2.3,7.3,0.8,9-6.9,9.4c-5,0.3-6.6,2.2-5.7,7.1c0.3,1.9,0.9,3.8,1.8,5.4c1.4,2.6,2.7,5.8,6.5,5.4c3.8-0.4,6.6-2.1,8.1-6
					c1.7-4.4,6.3-5.1,9.3-1.2c2.2,2.9,4.1,6.3,5.3,9.7c2,5.4,3.3,11.1,5.2,17.4c4.8-3.5,9.8-7,14.5-10.6c3.8-2.9,7.3-6.3,11.1-9.2
					c3.6-2.7,5.7-2.3,7.4,1.7c1.2,2.7,3.4,11.6,3.8,13.1c1.9,0.2,1.9,1,4.9-1.1c3-2,2.3-6.2,2.3-8.9c-0.1-2.3-1.7-4.5-2.7-6.8
					c-2.2-4.6-0.6-8.9,4-10.8c2.3-0.9,4.7-1.7,7.2-2.6c-5.2-17.4-13-33.2-22.6-47c-6.4,2.4-12.3,4.6-18.3,6.8
					C940.8,1007.8,947.5,1012.4,944.8,1016.5z M799.2,1000.2c0.4,1.8,1.5,4.8,2.2,4.8c1.9,0,4.3-1,5.8-2.3c6.6-6,12-4.9,15.6,3.3
					c2.6,6.1-0.4,11.2-7,11.7c-1.9,0.1-3.8-0.1-5.8,0c-3.4,0.1-5.2,1.7-4.7,5.2c1,6.6,2.1,13.3,3.4,19.8c0.2,0.9,2.1,2.3,2.9,2.2
					c9.7-1.8,19.4-3.7,29-5.9c1.8-0.4,3.2-2.7,4.7-4.1c-1.6-1-3.2-2-4.8-2.9c-0.6-0.3-1.3-0.4-1.9-0.7c-5.3-2.5-5.9-7.5-1.2-10.9
					c6.4-4.7,13.4-6.8,21.3-5c4.6,1,5.4,2.4,4,7c-1.7,5.3-0.5,7.1,5,5.9c8.3-1.8,16.4-4.3,25.3-6.7c-5.1-6.4-9.4-11.9-13.7-17.4
					c-1.9-2.4-2.4-4.8-0.8-7.6c1.6-2.8,4.1-2.7,6.8-2.5c2,0.1,5.1,0,5.7-1.1c0.8-1.4-0.2-4-0.7-6c-0.3-1-1.1-1.9-1.8-2.8
					c-1.7-2.4-3.6-3-6.3-1.2c-5.9,3.8-10.5,3.1-14.8-2.1c-1.8-2.2-3.3-5.7-5.5-6.3c-2.5-0.6-5.7,1.3-8.6,2.2
					c-0.9,0.3-1.8,0.6-2.8,0.8c-3.9,0.8-7.8,1.9-11.7,2.1c-4.7,0.2-5.7-1.2-6.3-6c-0.1-1-1.2-2.6-1.8-2.6c-3.6,0.2-7.5,0.1-10.8,1.3
					c-3.6,1.3-3.6,3.2-0.8,6c0.7,0.7,1.3,1.6,2,2.6c-6.9,6-15.5,6.7-23.5,9.4C798.2,993.8,798.5,997,799.2,1000.2z M878.3,982.2
					c7.1-3.8,11.7-2.2,14.8,5.4c0.9,2.2,1,5.6-0.1,7.6c-0.8,1.3-4.3,1-6.6,1.5c-1.7,0.4-4.4,0.4-4.9,1.4c-0.7,1.4-0.5,4.1,0.5,5.5
					c3.7,5.1,7.7,10,11.9,14.7c0.8,0.9,3.3,1.3,4.5,0.8c6.3-2.9,12.5-6.2,18.7-9.4c6.4-3.2,9.4-2.1,11.9,4.4c1.7,4.4,6,6,10.9,3.9
					c3.8-1.6,4.1-3,1.8-8.2l0.2,0.2c-1.1-1.4-2.6-2.6-3.2-4.2c-0.2-0.5,2-2.2,3.4-2.8c3.2-1.4,6.6-2.4,10.5-3.7
					c-2.4-3-4.6-5.5-6.4-8.1c-2.3-3.4-4.1-7.3-6.7-10.5c-2.3-2.8-5.2-6.8-8.1-7c-3.1-0.2-4.8-1.5-6.8-2.8c-2.5-1.7-5.1-3.4-7.1-5.6
					c-4.5-4.9-9.2-3.2-14.8-1c2.1,1.7,3.9,2.9,5.3,4.4c0.8,0.9,1.7,2.5,1.4,3.4c-0.3,1-1.9,2-3,2.2c-4.7,0.8-8.9-0.2-11.5-4.5
					c-1.4-2.4-3.3-3.3-5.8-2.7c-7.5,1.8-15,3.8-23.2,5.9c1.7,3,2.8,5.3,4.2,7.4C872.2,983.4,875,984,878.3,982.2z M674.6,1117.2
					c-0.1-2.2-0.5-4.4-0.4-6.5c0.1-2.1,0.7-4.1,1.1-6.2c2.3,0.5,5.1,0.4,6.8,1.7c2,1.5,3.7,4.2,4.3,6.6c0.7,2.7-0.2,5.7,0.1,8.5
					c0.2,2,0.7,4.7,2,5.8c7.3,5.7,15.8,6.7,25.7,5.6c-1-9.2-1.8-17.9-3.1-26.6c-0.6-4.1-2.5-4.4-6-1.7c-3.4,2.5-5.6,2.2-7.5-1.6
					c-2.7-5.4-2.4-11-0.1-16.3c1.4-3.3,4.4-3.9,7.7-2.6c4.8,1.9,6.6,1.2,7.1-3.8c0.6-5.9,0.2-11.9,0.2-18.2
					c-4.5,0.6-8.5,1.3-12.6,1.5c-9.8,0.5-12.2-3.2-8-11.8c0.2-0.5,0.6-1,0.8-1.5c1.2-2.8-0.2-4.4-2.8-4.6c-1.5-0.1-1.9,0.7-3.5,1.2
					c0,0-1.2,7.2-2,10.6c-1.4,6.5-6,8.7-11.8,6.1c-3.9-1.8-4.9-1.4-5.4,2.8c-0.9,7.3-1.5,14.6-2.1,21.9c-0.1,2,0.6,4,0.6,6
					c0.1,4.4-0.4,8.7,0,13.1C666,1111.9,670.4,1116.5,674.6,1117.2z M698,1182.2c-1.2-2.1-2.9-5.8-4.4-8.5c6.2,0,14.4,7.5,15.6,12.8
					c0.3,1.4,0.8,2.7,1.3,4c4.7,1.3,9.5,2.6,14.6,3.9c-1.8-4.9-3.8-8.9-4.6-13.1c-0.4-2,0.5-5.3,2-6.4c1.5-1.2,4.5-0.8,6.8-0.5
					c2.8,0.5,5.4,2,8.2,2.4c3,0.5,4.8-1.2,4.6-4.3c-0.3-4.9-2.4-9-6.6-11.7c-1-0.6-3-0.6-4,0c-7.3,3.9-14.4,1.7-16.7-6.1
					c-1.7-5.8-2.2-11.9-3.3-18.2c-2.1-0.1-5.1,0-8.1-0.5c-3-0.5-5.9-1.3-8.7-2.4c-8.3-3.4-10.6-7.6-9.3-16.4
					c0.6-4.3-0.9-7.3-4.8-8.9c-1.5-0.6-3.6-1-5-0.3c-0.8,0.4-0.6,3-0.6,4.5c0.1,2.6,0.4,5.2,0.6,7.7c-0.5,0.2-1,0.4-1.5,0.7
					c-2.2-1.8-4.4-3.7-7-5.9c0,1.7-0.2,2.8,0,3.7c2.6,10,5.1,19.9,8,29.8c0.5,1.9,2.7,3.2,4,4.9c0.5,0.6,0.6,1.6,0.6,2.5
					c0,0.7-0.8,1.5-0.6,2c3.9,8.6,7.6,17.4,15.9,23C695.8,1181.4,698.2,1182.4,698,1182.2z M710.5,1190.6
					C710.4,1190.6,710.4,1190.5,710.5,1190.6c-0.1-0.1-0.1-0.1-0.2-0.1L710.5,1190.6z M683.3,1057.4c0.6-1.8,0.5-3.8,0.8-5.7
					c0.3-1.7,0.8-3.3,1.1-5c0,0-0.1,0.1-0.1,0.2c1.2-3.6,4.2-4.5,7.1-3.5c3.4,1.2,2.7,4.3,1.6,7c-0.7,1.6-1.7,3.2-2.3,4.8
					c-1,2.6-0.1,4.6,2.6,4.9c6,0.7,11.9,0.1,17.6-1.7c-0.2-3.2-0.5-5.9-0.5-8.6c0-6.9,1.3-13.5,6.5-18.5c1.7-1.6,4.9-2.8,7.2-2.5
					c6.7,0.7,10.2-2.1,9.8-8.9c-0.2-3.2-1-5.2-5.1-3.8c-3.8,1.3-6.1-1-5.6-5c0.2-1.8,0.7-3.6,1.2-6.1c-4.1,0.9-7.5,1.9-10.9,2.5
					c-2.1,0.4-4.3,0.2-6.5,0.2c1-2.2,4-8.9,3.6-9.8s-2.1,0.2-3.9,0.8c-1,1.7-3.6,11.9-14.7,11.9c-4.5-0.7-7.8,1.2-9.5,5.7
					c-4.6,12.2-9.4,24.2-13.9,36.4c-0.7,1.9-0.8,4.2-1.1,6c2.5,1,4.4,1.7,6.3,2.5C678.8,1062.8,682.1,1061.4,683.3,1057.4z
					 M703,1005.1c1-1.7,1.9-3.5,2.9-5.2c2-3.8,4.3-4.7,8.5-2.8c-0.9,1.4-4,7.5-4.9,9.8c16.4-2,19.7-6.6,22.1-12.9
					c1.4-3.7,3.1-7.4,4.6-11.1c-0.3-0.2-0.7-0.4-1-0.7c-1.4,0.8-2.7,1.7-4.1,2.3c-0.8,0.3-1.9,0.2-2.6-0.2c-0.4-0.2-0.5-1.5-0.3-2.2
					c0.7-3.4,5-7.5,8.1-8c5.5-0.9,8.7-4.5,9.4-10.8c-4.1,1.8-8.1,3.6-12,5.3c-0.1-0.2-0.3-0.5-0.4-0.7c1.4-1.6,2.8-3.1,4.2-4.7
					c-0.3-0.3-0.5-0.7-0.8-1c-2.2,1.6-4.5,3.1-6.6,4.8c-3.4,2.7-6.3,6.1-10,8.2c-6.4,3.6-11.4,8.1-14.5,14.9
					c-1.2,2.6-3.6,4.7-5.6,6.9c-3.1,3.6-6.3,7.1-9.8,10.9C695.6,1009.6,699.9,1009.5,703,1005.1z"/>
			</g>
		</g>
		<g>
			<g>
				<path fill="#FFFFFF" d="M140.4,1055.2c15.3-2.4,30.6-6,45.6-9.9c30-7.9,60.5-18.3,87.1-34.4c15.7-9.5,30.1-21.4,40.2-37
					c-14.4-6.1-28.9-12.2-43.3-18.3c-13.7,56.5-22,114.6-24.9,172.7c-1.2,24.7-1.8,49.2,2.9,73.5c4.2,21.7,14.5,45,34.7,56.2
					c32.2,17.9,68.8-4.8,90.6-28.4c25.3-27.4,43.6-61.1,59.1-94.8c16.3-35.7,30.6-72.8,40.4-110.8c-15.2-4.2-30.5-8.4-45.7-12.6
					c-5.5,38.7-8.4,77.9-7.8,117c0.4,23.4,2.1,47.1,7,70c4,18.6,11,39.1,25.3,52.4c3.6,3.3,7.6,6.5,12,8.8c2.3,1.2,4.7,2.1,7.1,3
					c4,1.7-5.3-2.3-2.7-1.1c3.2,1.5,6.5,2.9,9.8,4c10.1,3.3,20.6,3.1,30.9,1.4c18.6-3.2,35.4-15.3,48.7-28.1
					c16.2-15.5,29.5-34.3,41.1-53.3c12.6-20.5,23.3-42.2,32.8-64.3c18.4-42.9,34.3-88,40.9-134.5c0.9-6.1,1.7-12.2,2.2-18.4
					c1.1-12.4-11.7-24.2-23.7-23.7c-13.8,0.6-22.5,10.4-23.7,23.7c-0.2,2-0.4,4-0.6,5.9c-0.1,1-0.2,2-0.4,3.1
					c-0.5,4.5,0.9-6.3,0.2-1.8c-0.7,4.6-1.4,9.1-2.3,13.7c-1.9,9.9-4.2,19.7-6.7,29.4c-5.8,22-13,43.7-21.3,64.9
					c-1,2.7-2.1,5.4-3.2,8c-0.5,1.3-1.1,2.7-1.6,4c-0.2,0.6-0.5,1.1-0.7,1.7c-1.7,4.2,1.8-4.2,0.7-1.7c-2.4,5.5-4.8,11-7.3,16.4
					c-4.9,10.7-10.1,21.2-15.8,31.5c-5.2,9.6-10.8,19-16.8,28.2c-2.9,4.4-5.9,8.7-9,12.9c-0.7,1-1.5,2-2.2,2.9
					c-2.8,3.8,3.1-3.9,0.9-1.1c-1.6,2-3.1,3.9-4.8,5.9c-5.7,6.7-11.8,13.1-18.5,18.8c-0.8,0.6-1.6,1.2-2.3,1.9
					c-1.5,1.3,3.6-2.5,3.1-2.4c-0.4,0.1-1,0.7-1.3,1c-1.6,1.2-3.3,2.3-5,3.4c-1.5,1-3.1,1.9-4.6,2.7c-1.1,0.6-4.3,1.5-5,2.4
					c0.5-0.8,6.8-2.6,2.7-1.2c-0.8,0.3-1.5,0.6-2.3,0.8c-1.5,0.5-3.1,0.9-4.6,1.2c-0.8,0.2-1.9,0.2-2.6,0.5c0.5-0.2,7.3-0.7,3.7-0.5
					c-1.6,0.1-3.3,0.2-4.9,0.1c-0.8,0-1.5-0.1-2.3-0.2c-3.3-0.1,7.1,1.3,3.4,0.4c-1.6-0.4-3.3-0.7-4.9-1.2c-0.8-0.2-1.5-0.5-2.3-0.8
					c-3.7-1.2,5.8,2.5,2.8,1.2c-2.2-1-5.2-1.6-7.2-3c-0.5-0.3,6.4,3.3,2.9,1.1c-1.2-0.7-2.4-1.6-3.7-2.3c-0.7-0.4,5.2,4.7,2.6,1.9
					c-0.6-0.6-1.3-1.2-1.9-1.8c-1.9-2-4.5-6.7,0.2,0.7c-0.9-1.4-1.9-2.7-2.8-4.2c-0.9-1.5-1.8-3.1-2.6-4.7c-0.4-0.8-0.8-1.7-1.2-2.5
					c-1.9-3.9,2.3,5.9,0.8,1.9c-1.5-4-2.9-7.9-4-12c-1.2-4.4-2.3-8.9-3.1-13.5c-0.4-2.3-0.9-4.6-1.2-6.9c-0.2-1.2-0.4-2.4-0.5-3.6
					c-0.1-0.5-0.1-1-0.2-1.5c-0.4-2.6,0.9,6.9,0.4,2.7c-1.2-10.4-2.1-20.7-2.5-31.2c-1.6-38.2,0.6-76.8,5.3-114.7
					c0.2-1.5,0.4-2.9,0.6-4.4c-0.9,6.8-0.7,5.3-0.2,1.7c0.9-6.6,1.1-12.3-2.4-18.3c-2.9-4.9-8.5-9.6-14.2-10.9
					c-12.3-2.8-25.8,3.7-29.1,16.5c-3.5,13.8-7.8,27.3-12.4,40.8c-2.7,7.9-5.5,15.7-8.5,23.5c-1.5,3.9-3,7.7-4.5,11.6
					c-0.8,1.9-1.6,3.9-2.4,5.8c-0.5,1.2-1,2.3-1.5,3.5c0.9-2.3,2-4.6,0.4-1c-13.6,31.9-29.5,63.3-50.4,91.1
					c-0.9,1.3-2.8,3.2,1.7-2.1c-0.7,0.8-1.4,1.7-2.1,2.6c-1.1,1.4-2.3,2.8-3.5,4.2c-2.4,2.8-4.8,5.5-7.4,8.1
					c-2.3,2.3-4.7,4.6-7.1,6.8c-1.2,1-2.4,2-3.6,3c-1.5,1.2-3.9,2.3,2.3-1.7c-0.7,0.5-1.4,1.1-2.2,1.6c-2.5,1.7-5,3.3-7.7,4.8
					c-1.2,0.6-2.5,1.2-3.7,1.8c-2.4,1.2,6.4-2.5,3.1-1.3c-0.7,0.3-1.5,0.6-2.2,0.8c-2.4,0.8-4.9,1.4-7.4,1.9c-3.6,0.8,7-0.6,3.3-0.5
					c-0.5,0-1,0.1-1.5,0.1c-1.5,0.1-3,0.1-4.5,0c-0.4,0-2-0.4-2.2-0.2c0,0,6.7,1.2,4.1,0.5c-0.4-0.1-1.8-0.6-2.2-0.5
					c0.3-0.1,5.6,2.8,2.6,1c-0.9-0.6-1.9-1.1-2.8-1.6c-3-1.6,2,1.6,2.2,1.8c-1.4-1.6-3.2-3-4.8-4.6c-3-3.2,3.3,4.9,0.9,1.2
					c-0.4-0.7-0.9-1.3-1.3-1.9c-1.1-1.7-2-3.4-2.9-5.2c-0.9-1.8-1.6-5.4,0.3,1.1c-0.2-0.8-0.6-1.6-0.9-2.4c-0.9-2.5-1.7-5-2.4-7.5
					c-1.2-4.4-2.2-8.9-2.9-13.4c-0.1-0.7-0.7-5.4-0.2-1c0.5,4.4,0-0.3-0.1-1c-0.3-2.8-0.6-5.6-0.7-8.4c-0.7-10.9-0.4-21.9,0-32.8
					c0.5-14.8,1.4-29.5,2.7-44.3c0.6-7.7,1.4-15.3,2.2-23c0.4-3.8,0.9-7.6,1.3-11.4c0.2-1.3,0.3-2.5,0.5-3.8
					c0.2-1.3,0.3-2.5,0.5-3.8c-0.4,3.1-0.5,3.3-0.1,0.6c4.2-29.6,9.7-58.9,16.7-87.9c2.8-11.5-2.7-23.3-13.7-27.9
					c-11.1-4.7-23.1-0.3-29.6,9.7c-0.8,1.2-1.8,2.4-2.5,3.7c3.8-6.5,2.1-2.6,0.2-0.5c-2.1,2.4-4.3,4.6-6.7,6.7
					c-1.2,1.1-2.5,2.2-3.7,3.2c-4.1,3.4,3.7-2.7,0.8-0.6c-3,2.1-5.9,4.2-9,6.2c-6,3.8-12.3,7.2-18.7,10.3c-3.4,1.6-6.8,3.2-10.2,4.7
					c-3.3,1.5,5.6-2.3,0.4-0.2c-2.1,0.9-4.2,1.7-6.3,2.5c-23.7,9.1-48.4,15.8-73.3,20.8c-5.2,1.1-10.4,2.1-15.6,2.9
					c-5.5,0.9-11.5,6.3-14.2,10.9c-3,5.1-4.2,12.6-2.4,18.3C115.6,1052,127.2,1057.2,140.4,1055.2L140.4,1055.2z"/>
			</g>
		</g>
		<g>
			<g>
				<path fill="#FFFFFF" d="M1003.9,1039.8c23.3-4.4,46.3-11.5,67-23.2c20.3-11.5,37.9-27.5,52.3-45.7c1.7-2.1,3.3-4.2,4.9-6.3
					c-3.1,4,2-2.6,3-3.8c1.8-2.4,3.6-4.8,5.2-7.3c2.7-4.1,5.2-8.4,7.3-12.9c4-8.6,7.2-18,6.6-27.6c-1.2-17.9-12.8-30.4-29.2-36.3
					c-12.1-4.4-25.7-4.3-38.2-2.1c-13.7,2.4-21.8,11.3-29.6,22c-10.2,13.9-16.3,30.9-17.4,48.1c-1.4,21.3,7.9,41.8,22.7,56.8
					c10.2,10.4,23.7,19.4,37,25.8c18.8,9.1,40,14.2,60.9,12c15.6-1.6,30.1-5.9,44-13.2c3-1.6,6-3.3,8.9-5.1c2.5-1.6-5.7,2-2.5,1.1
					c3.5-1-3.6,0.3-3.1,0.3c2.9,0-4-0.7-3.7-0.6c2.4,0.6-5.5-2.7-3.5-1.5c-2.9-1.7-4.3-3.3-5.8-5.8c1.5,2.4-2.1-5.9-1.3-3
					c1.1,3.8-0.1-6.3-0.3-1.9c-0.1,1.4-0.1,2.8-0.2,4.1c-0.2,3.3,1-6.2,0.3-2.2c-0.2,0.9-0.3,1.8-0.5,2.7c-0.4,2-0.8,4-1.3,6
					c-1.2,4.8-2.5,9.5-3.9,14.2c-3.5,11.6-7.3,23-11,34.5c-8.7,26.8-17.3,53.7-22.7,81.4c-5.1,26-8.9,55,2.3,80
					c14.3,31.6,53.2,34.5,83.1,27.9c22-4.8,43-15.1,62-26.9c21.4-13.3,41.3-29.3,59.4-46.8c34.7-33.4,62.7-74,87.2-115.4
					c25.6-43.2,47.2-90.7,51.7-141.3c2.1-23.8-0.5-48.8-9.4-71.1c-4.9-12.2-10.5-23.7-20.2-32.9c-16.3-15.6-38-21.4-60.1-17.9
					c-24.2,3.9-45.3,20.7-60.2,39.3c-25.1,31.4-39.9,69.9-50.1,108.5c-7.1,26.8-11.9,53.8-13.4,81.5c-1.5,27-1.2,54.2,2,81.1
					c6,50.4,20.1,106.3,63.3,137.7c33.6,24.4,78.1,23.4,114.7,6.8c17.1-7.7,32.7-19.7,45-33.8c6.5-7.4,7.9-19.5,0-26.7
					c-7.1-6.5-19.8-7.9-26.7,0c-2.8,3.2-5.8,6.3-8.9,9.3c-1.7,1.6-3.4,3.1-5.2,4.6c-0.6,0.5-1.2,1-1.8,1.5c-2.5,2.1,3.5-2.5-0.8,0.5
					c-6.8,4.9-14.1,9-21.7,12.5c-3.7,1.7,4.2-1.6,0.4-0.2c-1.1,0.4-2.1,0.8-3.1,1.2c-1.8,0.6-3.5,1.2-5.3,1.8
					c-4.2,1.3-8.6,2.3-12.9,3.1c-1.1,0.2-2.2,0.3-3.3,0.5c4.9-1.1,3.1-0.4,1.7-0.3c-2.2,0.2-4.4,0.4-6.5,0.5
					c-4.2,0.2-8.3,0.1-12.5-0.3c-0.9-0.1-1.8-0.3-2.7-0.3c5.4,0,2.4,0.3,0.7,0.1c-1.8-0.3-3.6-0.7-5.3-1.1c-4.1-1-8.4-3.3-12.5-3.9
					c4.3,0.7,2.3,1,0.4,0.2c-0.7-0.3-1.3-0.6-2-1c-2-1-4-2.1-5.9-3.2c-1.6-1-3.2-2-4.8-3.1c-0.6-0.4-2.1-1.9-2.8-2
					c2.3,1.8,2.6,2,1.1,0.8c-0.5-0.4-0.9-0.7-1.4-1.1c-3.2-2.7-6.3-5.7-9.1-8.8c-0.8-0.9-1.7-1.9-2.5-2.8c-0.9-1-3.7-3.3-0.2-0.2
					c-1.8-1.6-3.3-4.5-4.5-6.5c-2.8-4.3-5.3-8.8-7.5-13.4c-1.1-2.4-2.2-4.7-3.2-7.2c1.7,4-0.4-1.1-0.6-1.6c-0.8-2.1-1.6-4.1-2.3-6.2
					c-4.1-11.6-7.3-23.5-9.8-35.6c-1.3-6.1-2.3-12.3-3.2-18.5c-0.9-5.6,0.4,3.9-0.2-1.8c-0.1-1.1-0.3-2.3-0.4-3.4
					c-0.5-4-0.8-8-1.2-12c-2.1-25.5-1.8-51.1,0-76.5c0.2-2.7,0.4-5.5,0.6-8.2c0.1-1.6,0.3-3.2,0.4-4.9c0.3-5.1-0.6,2.4,0.1-0.9
					c1.4-6.6,2.4-13.3,3.7-19.9c2.5-12,5.3-24,8.6-35.8c2.8-10,5.9-19.8,9.5-29.5c0.9-2.4,1.8-4.9,2.8-7.3c0.7-1.7,1.2-4.4,2.4-5.8
					c-2.6,3.2-0.8,1.8,0,0c0.4-0.9,0.8-1.8,1.2-2.7c1-2.3,2.1-4.6,3.2-6.9c3.4-7.1,7.2-14,11.4-20.7c1.9-3,3.9-6,5.9-8.9
					c1-1.4,2-2.7,3-4.1c1.4-1.9-3.2,3.9-1,1.3c0.7-0.9,1.5-1.8,2.2-2.7c3.8-4.5,7.9-8.9,12.3-12.8c1.1-1,2.3-1.9,3.4-2.9
					c3.3-2.8-3.9,2.8-0.4,0.3c2.2-1.6,4.4-3.1,6.8-4.6c2-1.2,4.1-2.3,6.2-3.4c0.9-0.4,1.9-0.8,2.8-1.3c-6.5,3.2-2.4,1-0.6,0.4
					c2-0.7,4-1.3,6-1.8c1.1-0.3,2.2-0.5,3.3-0.7c0.4-0.1,0.7-0.1,1.1-0.2c3.7-0.7-5.1,0.5-2.3,0.3c3.9-0.2,7.5-0.3,11.4,0
					c2.7,0.2-5.7-1-3-0.4c0.5,0.1,1,0.1,1.5,0.3c0.8,0.2,1.6,0.3,2.4,0.5c1.9,0.5,3.8,1.1,5.6,1.7c4,1.4-3.8-1.8-1.8-0.8
					c0.9,0.4,1.8,0.8,2.6,1.3c1.6,0.9,3.2,1.8,4.8,2.8c0.7,0.5,1.4,1.1,2.2,1.5c-5.8-3.4-3-2.4-1.5-1.1c1.5,1.3,2.9,2.6,4.2,4
					c0.6,0.6,1.1,1.2,1.6,1.8c0.3,0.4,0.6,0.8,0.9,1.1c1.8,1.9-3.2-4.4-1.7-2.2c1.1,1.6,2.2,3.1,3.2,4.8c1.2,2.1,2.3,4.3,3.3,6.4
					c0.3,0.7,2.3,5.3,0.5,0.8c0.5,1.3,1.1,2.7,1.6,4c1,2.7,1.9,5.4,2.7,8.2c1.5,5,2.7,10.1,3.6,15.3c0.2,1.4,0.5,2.8,0.7,4.2
					c0-0.6-0.5-4.3-0.1-0.8c0.3,3.3,0.6,6.6,0.7,9.9c0.2,4.8,0.2,9.6-0.1,14.4c-0.1,2.9-0.4,5.8-0.6,8.7c-0.1,1.2-0.2,2.4-0.4,3.6
					c-0.6,5.1,0.5-2.4-0.2,1.5c-1.9,11.3-4.4,22.5-7.8,33.5c-1.5,4.9-3.1,9.7-4.9,14.5c-1.1,2.9-2.2,5.8-3.3,8.6
					c-0.5,1.2-1,2.4-1.4,3.6c-1.9,4.5,0.7-1.5-0.8,1.9c-18,40.7-41.9,78.3-67.8,114.4c-1.8,2.5-3.6,4.9-5.4,7.4
					c-0.5,0.6-2.2,2.8,0.1-0.2c-1,1.2-1.9,2.4-2.9,3.6c-3.9,4.9-8,9.7-12.1,14.4c-7.7,8.7-15.8,17-24.3,24.9
					c-4.2,4-8.5,7.8-12.9,11.6c-2.2,1.9-4.4,3.7-6.6,5.5c-1,0.8-2,1.6-3,2.4c-0.8,0.6-1.6,1.3-2.4,1.9c1.8-1.4,1.8-1.4,0.2-0.1
					c-8.8,6.6-17.8,12.9-27.2,18.6c-4.5,2.7-9,5.3-13.7,7.7c-2.3,1.2-4.5,2.3-6.8,3.4c-1,0.5-2.1,1-3.1,1.4
					c-1.2,0.6-5.9,3.5-1.6,0.7c-3.6,2.4-9.2,3.5-13.3,4.8c-4.3,1.3-8.6,2.4-13,3.3c-1.2,0.2-2.3,0.4-3.5,0.6c-1.9,0.3-4.4-0.3,0.4,0
					c-1.8-0.1-3.8,0.4-5.6,0.5c-4.4,0.3-8.6,0.1-13-0.3c-3.9-0.3,4.7,0.9,0.9,0.1c-0.7-0.1-1.4-0.2-2-0.4c-2-0.4-4-0.9-6-1.5
					c-1.1-0.3-2.1-0.8-3.2-1.1c6.5,1.9,2.9,1.3,1,0.2c-1-0.5-1.8-1.2-2.8-1.7c-3.1-1.9,3.8,3.5,1.3,1c-0.7-0.8-1.6-1.4-2.3-2.2
					c-0.2-0.3-0.5-0.5-0.7-0.8c-2.5-2.6,2.7,4,1.3,1.7c-1.1-1.7-2.1-3.3-3.1-5.1c-2.1-3.9,1.2,3.5,0.5,1.4c-0.4-1.2-0.9-2.4-1.3-3.6
					c-0.6-2-1.1-4.1-1.5-6.2c-0.4-2.1-0.3-6.7,0,0.6c0-1.3-0.3-2.6-0.4-4c-0.4-5.4-0.4-10.7-0.1-16.1c0.2-2.7,0.4-5.4,0.7-8.1
					c0.2-1.6,0.4-3.2,0.6-4.8c0.3-2.8-0.4,2.7-0.4,2.6c0.2-1.1,0.3-2.2,0.5-3.3c1-6.5,2.2-12.9,3.6-19.3
					c2.9-13.2,6.4-26.2,10.3-39.1c7-23.6,15.2-46.8,22.2-70.4c4.6-15.6,13-39.2-0.8-52.4c-5.7-5.5-14.1-7.4-21.7-5.3
					c-6,1.6-10.9,5.2-16.4,8c-1.3,0.7-2.7,1.4-4.1,2c-0.8,0.4-4.4,1.8-1.2,0.6c-3.1,1.2-6.3,2.3-9.5,3.2c-2.5,0.7-5.1,1.3-7.7,1.8
					c-0.9,0.2-5.8,1.4-1,0.2c-1.4,0.3-3,0.3-4.4,0.4c-5,0.3-10.1,0.3-15.2-0.2c-4.7-0.5-0.1-0.1-0.1,0c0,0-3.4-0.6-3.7-0.6
					c-2.3-0.5-4.6-1-6.9-1.6c-3.8-1-7.4-2.4-11.1-3.7c-2.8-1,1.8,0.7,1.9,0.8c-0.6-0.5-1.7-0.8-2.4-1.1c-1.4-0.7-2.9-1.4-4.3-2.1
					c-2.9-1.5-5.6-3.3-8.3-5c-4.2-2.6-8.3-5.1-12.4-8c3.6,2.6-2-1.8-2.9-2.6c-2.1-2-4.2-4-6.1-6.2c-0.5-0.6-1.8-1.7-2-2.4
					c0.5,0.6,1,1.2,1.5,1.9c-0.5-0.6-0.9-1.3-1.4-2c-1.1-1.6-2.1-3.3-3-4.9c-0.5-1-1-2-1.5-3c-1.8-3.6,1.4,4.2,0.3,0.5
					c-0.6-2-1.3-4-1.8-6c-0.2-1-0.4-2-0.6-3c-0.7-3.1,0.4,2,0.2,2c0.1-0.1-0.3-5.4-0.3-5.9c0-1.6,0.1-3.2,0.2-4.9
					c0.2-3.2,1.3-1-0.2,1.2c0.5-0.6,0.4-2.5,0.6-3.3c0.6-3.2,1.5-6.4,2.6-9.5c0.3-0.9,0.7-1.7,1-2.6c1.2-3.4-2.1,4.3-0.5,1.1
					c0.8-1.6,1.5-3.3,2.4-4.9c1.5-2.8,3.1-5.5,4.9-8.1c0.8-1.1,1.6-2.2,2.4-3.3c-3.8,5.7-0.6,0.8,0.7-0.6c0.8-1,1.7-1.9,2.6-2.8
					c3.2-3.4-1.7,1.7-2,1.3c0,0,1.7-0.9,1.8-1c1.9-1.3-5.1,1.8-3.2,1.4c0.5-0.1,1-0.4,1.4-0.5c1.8-0.5,3.5-0.9,5.4-1.2
					c3.8-0.8-5.5,0.5-1.7,0.2c1.4-0.1,2.8-0.2,4.2-0.3c2.1-0.1,4.2,0,6.3,0.1c2.4,0.2,5.8,1.7-0.5-0.2c1.2,0.4,2.6,0.4,3.8,0.7
					c1.1,0.3,2.3,0.6,3.4,0.9c2.1,0.7,4.9,2.8-0.7-0.5c0.9,0.5,1.8,0.8,2.7,1.3c0.5,0.3,1,0.6,1.5,0.9c2.3,1.3,1.1,2.5-1.5-1.2
					c0.5,0.7,1.5,1.4,2.1,2c2.7,2.5-2.6-4.6-0.7-0.8c2.1,4.2-0.6-2.7-0.3-1c0.1,0.6,0.3,1.2,0.5,1.8c0.6,1.7-0.5,3.7-0.2-2.5
					c-0.1,1.4,0.1,2.8,0.1,4.2c0,4.3,1.2-4.8,0-0.3c-0.4,1.4-0.7,2.9-1.2,4.3c-0.3,0.9-0.7,1.8-1,2.7c-1,2.9,2-4.3-0.2,0.4
					c-2,4-4.3,7.8-6.7,11.5c-1.5,2.3-3.2,4.5-4.8,6.7c3-4-2,2.6-3,3.8c2-2.6-0.1,0.1-0.9,1.1c-7,8.7-14.8,16.8-23.3,24.1
					c-1,0.8-6.5,5.6-2.6,2.2c-1.8,1.6-4,3-6,4.4c-4.2,2.9-8.6,5.6-13.1,8c-4.2,2.3-8.7,4.8-13.3,6.4c4.8-1.7,0.4-0.2-0.5,0.2
					c-1.1,0.4-2.1,0.8-3.2,1.2c-2.4,0.9-4.8,1.7-7.2,2.5c-10.3,3.3-20.8,5.8-31.4,7.8c-9.7,1.8-16.1,14.1-13.2,23.2
					C984,1037,993.5,1041.8,1003.9,1039.8L1003.9,1039.8z"/>
			</g>
		</g>
		<g>
			<g>
				<path fill="#FFFFFF" d="M1692.9,1076.8c-13-33.5-41.1-61.3-77.5-67.2c-36.5-6-72,9.4-99.6,32.6c-25.9,21.8-45.4,53.6-52,86.9
					c-6.4,31.9-2.3,68.9,17.2,95.8c10.9,15.1,25,25.9,42.9,31.5c19.6,6.2,40.2,7,60.4,3.6c31.3-5.4,57-23.1,80.1-43.9
					c47.7-42.8,86.7-95.7,114.1-153.6c22-46.5,37.6-96,43.2-147.2c1.8-16.6,2.6-33.5,0.5-50.2c-1.8-14.1-4.6-29.4-14.8-40.2
					c-14.1-14.8-36.8-9.4-53-1.4c-20.7,10.3-36,30.6-47,50.3c-26.7,47.7-39.1,103.8-46.4,157.4c-3.4,24.9-6.4,50.1-4.5,75.2
					c2.3,30.1,8,60.9,19.3,89c5.7,14.3,12.5,27.5,22.2,39.4c10.8,13.2,27.4,22.6,43.5,27.6c37.4,11.8,73.4-6.4,101.1-30.8
					c13.5-11.9,25.4-25.5,36.8-39.5c6.2-7.6,8-19.3,0-26.7c-6.9-6.3-20-8.2-26.7,0c-11,13.5-22.6,26.7-35.6,38.4
					c-2.9,2.6-6,5.2-9,7.6c2.9-2.3-0.7,0.5-1.7,1.2c-1.8,1.3-3.7,2.6-5.6,3.8c-3.1,2-6.3,3.8-9.5,5.5c-0.3,0.1-4.2,2.4-4.5,2.2
					c0.2,0.2,3.4-1.3,0.6-0.3c-1.1,0.4-2.2,0.8-3.3,1.2c-3.3,1.1-6.6,2.1-10,2.7c-0.4,0.1-2.2,0.6-2.7,0.5c0.3,0.1,4.6-0.4,0.9-0.2
					c-1.8,0.1-3.6,0.3-5.5,0.3c-1.8,0-3.7,0-5.5-0.2c-0.6,0-2.3-0.4-2.8-0.3c0.5-0.2,4.4,0.8,0.8,0c-3.9-0.9-7.6-1.9-11.4-3.2
					c-0.8-0.3-3.2-1.5,0.2,0.1c-0.7-0.3-1.5-0.7-2.2-1c-2-1-3.9-2-5.8-3.1c-1.8-1-3.5-2.1-5.2-3.2c-1-0.7-2-1.4-3-2
					c-3.6-2.4,1.4,1.3,0.5,0.5c-1.7-1.7-3.6-3.2-5.2-4.9c-0.9-1-1.8-2-2.6-3c-0.4-0.5-1.5-2,0.2,0.3c2,2.6,0,0-0.4-0.6
					c-3.5-4.9-6.5-10.2-9.2-15.6c-1.1-2.1-3.4-5.4-3.6-7.8c0.2,2.6,1.2,2.8,0.5,1c-0.3-0.8-0.6-1.6-0.9-2.4c-0.7-1.8-1.4-3.6-2-5.4
					c-4.6-13-8.1-26.4-10.8-40c-0.6-3.3-1.2-6.5-1.8-9.8c-0.3-1.7-0.6-3.5-0.8-5.2c-0.1-0.6-0.5-2-0.4-2.6c-0.2,0.8,0.5,3.9,0.2,1.2
					c-0.8-6.5-1.4-12.9-1.8-19.5c-0.6-10.6-0.3-21.2,0.5-31.8c0.4-5.6,0.9-11.3,1.5-16.9c0.3-2.8,0.6-5.6,0.9-8.3
					c0.2-1.3,0.3-2.6,0.5-4c0.1-0.8,0.2-1.5,0.3-2.3c0.4-3.4-0.5,3.4-0.1,1c1.8-12.6,3.8-25.2,6.3-37.7c5-25.2,11.5-50.3,20.3-74.4
					c1.1-3,2.2-6,3.4-8.9c0.5-1.3,1-2.5,1.6-3.8c0.9-2.3-1.6,3.5-0.5,1.3c0.4-0.9,0.8-1.8,1.2-2.7c2.3-5.3,4.8-10.6,7.6-15.7
					c2.6-4.9,5.3-9.6,8.3-14.2c1.4-2.1,2.8-4.2,4.3-6.3c0.4-0.6,3.4-4.5,1.2-1.6c-2.1,2.7,0.9-1.1,1.5-1.8c3-3.6,6.3-7.1,9.8-10.2
					c0.8-0.7,1.5-1.3,2.3-2c3.4-2.9-2.5,1.7-0.4,0.3c1.8-1.3,3.6-2.5,5.6-3.7c1.8-1,3.6-1.9,5.4-2.8c0.9-0.5-4.8,1.7-1.2,0.5
					c1.1-0.4,2.2-0.8,3.4-1.1c1.9-0.6,3.9-0.9,5.8-1.3c2.4-0.6-5.4,0.4-1,0.2c1.1-0.1,2.2-0.1,3.2-0.2c4.7-0.2-3.6-0.8-2.2-0.5
					c3.7,1-4-1.9-2.3-1.1c1,0.4,3.3,2.3-0.1-0.3c-3.4-2.6-0.9-0.5-0.1,0.2c2.7,2.5-3-4.7-1.3-1.6c0.5,0.8,1,1.6,1.5,2.5
					c0.5,1,2.1,4.6,0.4,0.6c-1.7-4.1,0,0.3,0.4,1.4c0.8,2.4,1.4,4.9,2,7.4c0.3,1.3,0.5,2.7,0.8,4.1c0.1,0.7,0.2,1.3,0.3,2
					c0.5,3.2-0.6-5.7-0.2-1.8c0.7,7,1.1,14,1.1,21.1c-0.1,8.6-0.6,17.1-1.5,25.7c-0.2,2.2-0.5,4.4-0.8,6.7c-0.2,1.5-1,6.1,0.1-0.5
					c-0.2,1.2-0.3,2.5-0.5,3.7c-0.8,5.1-1.6,10.2-2.6,15.3c-4.3,22.4-10.5,44.5-18.2,65.9c-2.1,5.9-4.3,11.7-6.6,17.4
					c-0.6,1.5-1.2,3-1.9,4.5c-1.3,3.1,1.6-3.7-0.3,0.6c-1.3,3.1-2.7,6.1-4,9.2c-5.6,12.4-11.8,24.6-18.4,36.5
					c-6.9,12.3-14.3,24.3-22.2,35.9c-4.2,6.2-8.6,12.3-13.1,18.3c-0.4,0.6-3.5,4.6-2,2.6c1.5-2-1.6,2-2.1,2.6
					c-2.5,3.2-5.1,6.4-7.7,9.5c-9.8,11.8-20.2,23.1-31.2,33.8c-5.6,5.5-11.4,10.9-17.4,16.2c-3.1,2.8-6.3,5.5-9.4,8.1
					c-1,0.8-1.9,1.6-2.9,2.4c-2.9,2.4,3.7-2.7-0.3,0.2c-4.6,3.4-9.4,6.5-14.4,9.3c-2.7,1.5-5.5,3-8.3,4.3c-0.8,0.4-1.6,0.7-2.4,1.1
					c-1.5,0.7-2.2,0.1,0.9-0.3c-1.6,0.2-3.5,1.4-5,1.9c-6.6,2.4-15.1,5.6-22.2,5.6c0.1,0,3.5-0.3,1.3-0.2c-1,0.1-2,0.2-3.1,0.3
					c-1.8,0.1-3.6,0.2-5.4,0.3c-4.6,0.1-9.1-0.3-13.8-0.6c-2.2-0.1,0.5,0.1,0.8,0.2c-1.1-0.2-2.3-0.3-3.4-0.6
					c-2.3-0.4-4.6-0.9-6.9-1.5c-2.1-0.5-4.1-1.1-6.1-1.7c-1.2-0.4-2.4-0.7-3.5-1.1c-0.9-0.3-1.8-0.6-2.7-0.9
					c0.7,0.3,1.5,0.6,2.2,0.9c-0.7,0.6-7.2-4-8.1-4.6c-0.7-0.5-1.3-1-2-1.4c-1.7-1.1,1.5,1,1.4,1.1c-0.4,0.2-3.7-3.3-4.1-3.7
					c-1.2-1.2-2.3-2.4-3.4-3.6c-0.4-0.5-0.8-0.9-1.2-1.4c-2.4-2.7,0.6,0.9,0.6,0.9c-1.8-0.4-4.6-6.9-5.5-8.5c-0.8-1.5-1.6-3-2.4-4.6
					c-0.2-0.5-1.1-1.9-1.1-2.3c0,0.2,1.6,4.3,0.4,0.9c-1.2-3.3-2.4-6.6-3.3-10c-0.9-3.2-1.6-6.5-2.2-9.8c-0.2-0.9-0.3-1.8-0.4-2.7
					c-0.4-2.1,0.2,1.6,0.2,1.7c0.1-2-0.5-4.1-0.6-6.1c-0.5-7-0.3-14,0.4-21c0.3-3.4,0,0.5-0.2,1c0.2-0.8,0.3-1.8,0.4-2.6
					c0.3-1.7,0.6-3.5,1-5.2c0.8-3.8,1.8-7.5,3-11.2c1.1-3.5,2.4-6.9,3.7-10.3c0.8-2-0.4,1-0.5,1.1c0.4-0.9,0.8-1.8,1.2-2.7
					c0.9-2,1.9-3.9,2.9-5.9c3.5-6.7,7.5-13,11.9-19.1c2-2.8,0.1-0.1-0.3,0.4c0.6-0.8,1.2-1.5,1.8-2.2c1.1-1.3,2.2-2.6,3.3-3.8
					c2.7-3.1,5.5-6,8.5-8.8c2.4-2.3,4.9-4.5,7.5-6.6c0.7-0.6,1.5-1.2,2.2-1.8c-3.2,2.6-1.2,0.9-0.4,0.4c1.7-1.2,3.5-2.5,5.2-3.7
					c6.1-4.1,12.5-7.5,19.2-10.6c1.1-0.5,2.6-1.8-0.6,0.3c0.7-0.4,1.9-0.8,2.6-1c1.5-0.6,3.1-1.1,4.6-1.6c3.6-1.2,7.2-2.2,10.8-3
					c0.7-0.1,6.6-1.2,3.7-0.8c-2.6,0.4,2.1-0.2,3-0.2c3.7-0.2,7.3-0.2,11,0.1c0.7,0.1,2,0,2.7,0.3c-3.7-1.3-2.3-0.4-1-0.1
					c1.8,0.4,3.6,0.7,5.3,1.1c1.5,0.4,3.1,0.8,4.6,1.3c1.1,0.3,4.6,2.3,5.7,2.1c-0.4,0.1-4-1.9-0.8-0.3c0.6,0.3,1.2,0.6,1.8,0.9
					c1.6,0.8,3.2,1.7,4.8,2.6c1.4,0.8,2.7,1.6,4.1,2.5c0.8,0.5,1.5,1.1,2.3,1.6c2.9,1.9-1.7-1.5,0,0c2.7,2.3,5.3,4.5,7.7,7
					c1.3,1.3,2.6,2.7,3.8,4.2c0.5,0.5,0.9,1.1,1.4,1.6c1.7,2-1.8-2.7-0.4-0.4c2,3,4.1,5.9,5.8,9.1c0.9,1.7,1.8,3.4,2.7,5.2
					c0.3,0.7,0.6,1.3,0.9,2c1.3,2.7-1.7-4.2,0.1,0.3c3.6,9.2,12.8,16.5,23.2,13.2C1688.6,1097.1,1696.7,1086.7,1692.9,1076.8
					L1692.9,1076.8z"/>
			</g>
		</g>
	</g>
</g>
</svg>
